<svg xmlns="http://www.w3.org/2000/svg" version="1" viewBox="0 0 1878 1878"><path fill="#1d77ef" d="M1539 751v160H707c-62 0-128 16-197 48-68 32-123 71-164 119L9 1474l-5 6a237 237 0 0 0-1-25V495c0-61 22-114 66-158s97-66 158-66h320c62 0 114 22 158 66s66 97 66 158v32h544c62 0 114 22 158 66s66 97 66 158z"/><path fill="#83f3fe" d="M775 570q0 62-43 105-43 44-105 44t-106-44q-43-43-43-105t43-105q44-44 106-44t105 44q43 43 43 105zm793 297v347H478v-149l248-247 124 123 396-396zm74-545H404q-10 0-18 8-7 7-7 17v941q0 10 7 18 8 7 18 7h1238q10 0 17-7 8-8 8-18V347q0-10-8-17-7-8-17-8zm124 25v941q0 51-37 88-36 36-87 36H404q-51 0-88-36-36-37-36-88V347q0-51 36-87 37-37 88-37h1238q51 0 87 37 37 36 37 87z"/><path fill="#1d77ef" d="M1874 1243c0 15-11 32-31 49l-336 294a462 462 0 0 1-264 90H154c-22 0-42-3-60-10-18-6-27-17-27-32s11-31 31-48l336-294c29-25 69-46 121-64s99-26 143-26h1089c22 0 42 3 60 9 18 7 27 17 27 32z"/></svg>